<svg id="Layer_1" data-name="Layer 1" xmlns="http://www.w3.org/2000/svg" viewBox="0 0 215 215"><defs><style>.cls-1,.cls-3{fill:#e56a77;}.cls-1{stroke:#edc951;stroke-miterlimit:10;stroke-width:9px;}.cls-2{fill:#edc951;}</style></defs><title>rate</title><circle class="cls-1" cx="107.5" cy="107.5" r="103"/><path class="cls-2" d="M138.69,38h12.65c11.19,0,18.23,8.69,18.23,19.87v105c0,11.19-7,21.83-18.23,21.83h-88c-11.19,0-19.9-10.64-19.9-21.83v-105A19.63,19.63,0,0,1,63.34,38h11"/><polygon class="cls-3" points="80.77 63.75 133.91 63.75 138.97 30.29 75.71 30.29 80.77 63.75"/><path d="M137.49,170.56H76.6c-13.85,0-23.16-8.73-23.16-21.73V74.51c0-13.52,10.38-24.12,23.63-24.12a3.86,3.86,0,1,1,0,7.72c-8.92,0-15.9,7.21-15.9,16.4v74.32c0,8.64,5.91,14,15.43,14h60.89c8.13,0,16.34-4.33,16.34-14V74.51a16.4,16.4,0,0,0-16.37-16.4,3.86,3.86,0,0,1,0-7.72,24.14,24.14,0,0,1,24.1,24.12v74.32C161.56,161.63,151.66,170.56,137.49,170.56Z"/><path d="M151,188.58H63c-12.81,0-22.47-10.49-22.47-24.4v-105c0-14,9.87-25,22.47-25H74a3.86,3.86,0,0,1,0,7.72H63c-9.58,0-14.74,8.91-14.74,17.3v105c0,8.29,5.06,16.68,14.74,16.68h88c8.78,0,15.66-7.33,15.66-16.68v-105c0-9.54-7-17.3-15.66-17.3H138.39a3.86,3.86,0,1,1,0-7.72H151c12.9,0,23.39,11.23,23.39,25v105C174.43,177.86,164.15,188.58,151,188.58Z"/><path d="M97.2,98.49H68.89a3.86,3.86,0,0,1,0-7.72H97.2a3.86,3.86,0,0,1,0,7.72Z"/><path d="M97.2,108.79H68.89a3.87,3.87,0,0,1,0-7.73H97.2a3.87,3.87,0,0,1,0,7.73Z"/><path d="M97.2,142.25H68.89a3.86,3.86,0,0,1,0-7.72H97.2a3.86,3.86,0,1,1,0,7.72Z"/><path d="M97.2,152.55H68.89a3.87,3.87,0,0,1,0-7.73H97.2a3.87,3.87,0,0,1,0,7.73Z"/><path d="M133.61,67.6H80.48a3.86,3.86,0,0,1-3.82-3.28L71.6,30.86a3.86,3.86,0,0,1,3.81-4.44h63.26a3.86,3.86,0,0,1,3.82,4.44l-5.06,33.46A3.86,3.86,0,0,1,133.61,67.6ZM83.8,59.88h46.49l3.89-25.74H79.9Z"/></svg>